<svg width="28" height="24" viewBox="0 0 28 24" fill="none" xmlns="http://www.w3.org/2000/svg">
<path id="Vector (Stroke)" fill-rule="evenodd" clip-rule="evenodd" d="M23.3908 11.0932H15.4225V4.91188C15.4225 4.13109 15.1377 3.38036 14.6257 2.80184L14 2.09511L13.3745 2.80163C12.8629 3.37972 12.5775 4.13077 12.5775 4.91188V11.0932H4.6092V6.13642H1.91764V15.7029H5.06342V18.7421C5.06342 19.1646 5.34511 19.5169 5.72477 19.6162L13.2239 22.1C13.733 22.2332 14.2666 22.2333 14.7757 22.1001L22.2752 19.6162C22.6549 19.5169 22.9366 19.1646 22.9366 18.7421V15.7029H26.0823V6.13642H23.3908V11.0932ZM5.26905 21.3576C4.08823 21.0486 3.26342 19.9736 3.26342 18.7421V17.5029H1.34527C0.667006 17.5029 0.117645 16.9484 0.117645 16.2637V5.57562C0.117645 4.89096 0.667006 4.33642 1.34527 4.33642H5.18158C5.85984 4.33642 6.4092 4.89096 6.4092 5.57562V9.29322H10.7775V4.91188C10.7775 3.69281 11.2225 2.51712 12.0266 1.60864L13.0847 0.413583C13.5726 -0.137861 14.4274 -0.137861 14.9153 0.413583L15.9734 1.60864C16.7783 2.5179 17.2225 3.69359 17.2225 4.91188V9.29322H21.5908V5.57562C21.5908 4.89096 22.1401 4.33642 22.8184 4.33642H26.6547C27.333 4.33642 27.8824 4.89096 27.8824 5.57562V16.2637C27.8824 16.9484 27.333 17.5029 26.6547 17.5029H24.7366V18.7421C24.7366 19.9736 23.9118 21.0486 22.7309 21.3576L15.2315 23.8414C14.4235 24.0529 13.5765 24.0529 12.7685 23.8414L5.26905 21.3576Z" fill="#FDFEFE"/>
</svg>
