<?xml version="1.0" encoding="utf-8"?>
<!-- Generator: Adobe Illustrator 27.9.0, SVG Export Plug-In . SVG Version: 6.00 Build 0)  -->
<svg version="1.1" id="Layer_1" xmlns="http://www.w3.org/2000/svg" xmlns:xlink="http://www.w3.org/1999/xlink" x="0px" y="0px"
	 viewBox="0 0 900 900" style="enable-background:new 0 0 900 900;" xml:space="preserve">
<style type="text/css">
	.st0{fill:#DCE5F1;}
</style>
<path class="st0" d="M432.1,345.2v93.2c0,13.1,13.7,21.5,25.4,15.7l93.2-46.6c12.9-6.5,12.9-24.9,0-31.4l-93.2-46.6
	C445.8,323.7,432.1,332.1,432.1,345.2z"/>
<path class="st0" d="M328.1,589.6c-34.1,0-64.4-21.8-75.4-54.3l-0.7-2.4c-2.6-8.6-3.7-15.8-3.7-23.1V364.5L196.6,537
	c-6.6,25.4,8.5,51.7,33.9,58.7l329.2,88.2c4.1,1.1,8.2,1.6,12.3,1.6c21.2,0,40.6-14.1,46-34.8l19.2-61H328.1V589.6z"/>
<path class="st0" d="M652.8,216.9H333.4c-29.3,0-53.2,23.9-53.2,53.2v234.2c0,29.3,23.9,53.2,53.2,53.2h319.4
	c29.3,0,53.2-23.9,53.2-53.2V270.2C706,240.8,682.1,216.9,652.8,216.9z M663.4,270.2v50.4V381v40.3V505c0,5.5-4.5,10-10,10H332.7
	c-5.5,0-10-4.5-10-10v-33.9V381v-60.5v-50.4v-0.6c0-5.5,4.5-10,10-10h0.6h61.4h196.7h61.4h0.6c5.5,0,10,4.5,10,10V270.2z"/>
</svg>
