<svg width="17" height="17" viewBox="0 0 17 17" fill="none" xmlns="http://www.w3.org/2000/svg">
<g id="Frame">
<path id="Vector" d="M11.3334 5.66663C12.4605 5.66663 13.5415 6.11439 14.3386 6.91142C15.1356 7.70845 15.5834 8.78946 15.5834 9.91663V14.875H12.75V9.91663C12.75 9.5409 12.6008 9.18057 12.3351 8.91489C12.0694 8.64922 11.7091 8.49996 11.3334 8.49996C10.9577 8.49996 10.5973 8.64922 10.3316 8.91489C10.066 9.18057 9.91671 9.5409 9.91671 9.91663V14.875H7.08337V9.91663C7.08337 8.78946 7.53114 7.70845 8.32817 6.91142C9.1252 6.11439 10.2062 5.66663 11.3334 5.66663Z" stroke="#A0A4A9" stroke-width="2" stroke-linecap="round" stroke-linejoin="round"/>
<path id="Vector_2" d="M4.24996 6.375H1.41663V14.875H4.24996V6.375Z" stroke="#A0A4A9" stroke-width="2" stroke-linecap="round" stroke-linejoin="round"/>
<path id="Vector_3" d="M2.83329 4.24996C3.6157 4.24996 4.24996 3.6157 4.24996 2.83329C4.24996 2.05089 3.6157 1.41663 2.83329 1.41663C2.05089 1.41663 1.41663 2.05089 1.41663 2.83329C1.41663 3.6157 2.05089 4.24996 2.83329 4.24996Z" stroke="#A0A4A9" stroke-width="2" stroke-linecap="round" stroke-linejoin="round"/>
</g>
</svg>
