<svg width="40" height="40" viewBox="0 0 40 40" fill="none" xmlns="http://www.w3.org/2000/svg">
<g id="Logo_circular" clip-path="url(#clip0_3_2095)">
<g id="Group 1">
<mask id="mask0_3_2095" style="mask-type:alpha" maskUnits="userSpaceOnUse" x="0" y="0" width="40" height="40">
<circle id="Ellipse 1" cx="20" cy="20" r="20" fill="#D9D9D9"/>
</mask>
<g mask="url(#mask0_3_2095)">
<path id="Vector" d="M20.2281 0H0V40H20.2281V0Z" fill="#36454F"/>
</g>
</g>
<g id="logo_path">
<path id="Vector_2" d="M28.1129 14.7679V17.7932H22.8816V14.2277C22.8816 13.2363 22.5166 12.2795 21.8555 11.5396L20.9863 10.567C20.5854 10.1183 19.8833 10.1183 19.4824 10.567L18.6133 11.5396C17.9527 12.2789 17.5872 13.2357 17.5872 14.2277V17.7932H12.3558V14.7679C12.3558 14.2107 11.9045 13.7594 11.3474 13.7594H8.19595C7.63878 13.7594 7.1875 14.2107 7.1875 14.7679V23.4658C7.1875 24.023 7.63878 24.4742 8.19595 24.4742H9.77166V25.4827C9.77166 26.4848 10.4492 27.3597 11.4192 27.6112L19.2228 29.6325C19.8865 29.8046 20.5823 29.8046 21.246 29.6325L29.0495 27.6112C30.0195 27.3597 30.6971 26.4848 30.6971 25.4827V24.4742H32.2728C32.83 24.4742 33.2812 24.023 33.2812 23.4658V14.7679C33.2812 14.2107 32.83 13.7594 32.2728 13.7594H29.1214C28.5642 13.7594 28.1129 14.2107 28.1129 14.7679Z" fill="#FDFEFE"/>
</g>
</g>
<defs>
<clipPath id="clip0_3_2095">
<rect width="40" height="40" fill="white"/>
</clipPath>
</defs>
</svg>
