<svg width="41" height="40" viewBox="0 0 41 40" fill="none" xmlns="http://www.w3.org/2000/svg">
<g id="Logo_circular" clip-path="url(#clip0_20_2811)">
<g id="Group 1">
<mask id="mask0_20_2811" style="mask-type:alpha" maskUnits="userSpaceOnUse" x="0" y="0" width="41" height="40">
<circle id="Ellipse 1" cx="20.5" cy="20" r="20" fill="#D9D9D9"/>
</mask>
<g mask="url(#mask0_20_2811)">
<path id="Vector" d="M40.5 0H0.5V40H40.5V0Z" fill="#4189DD"/>
<path id="Vector_2" d="M20.7281 0H0.5V40H20.7281V0Z" fill="#36454F"/>
</g>
</g>
<g id="logo_path">
<path id="Vector_3" d="M28.6129 14.7679V17.7932H23.3816V14.2277C23.3816 13.2363 23.0166 12.2795 22.3555 11.5396L21.4863 10.567C21.0854 10.1183 20.3833 10.1183 19.9824 10.567L19.1133 11.5396C18.4527 12.2789 18.0872 13.2357 18.0872 14.2277V17.7932H12.8558V14.7679C12.8558 14.2107 12.4045 13.7594 11.8474 13.7594H8.69595C8.13878 13.7594 7.6875 14.2107 7.6875 14.7679V23.4658C7.6875 24.023 8.13878 24.4743 8.69595 24.4743H10.2717V25.4827C10.2717 26.4849 10.9492 27.3597 11.9192 27.6112L19.7228 29.6325C20.3865 29.8046 21.0823 29.8046 21.746 29.6325L29.5495 27.6112C30.5195 27.3597 31.1971 26.4849 31.1971 25.4827V24.4743H32.7728C33.33 24.4743 33.7812 24.023 33.7812 23.4658V14.7679C33.7812 14.2107 33.33 13.7594 32.7728 13.7594H29.6214C29.0642 13.7594 28.6129 14.2107 28.6129 14.7679Z" fill="#FDFEFE"/>
</g>
</g>
<defs>
<clipPath id="clip0_20_2811">
<rect width="40" height="40" fill="white" transform="translate(0.5)"/>
</clipPath>
</defs>
</svg>
