<svg width="109" height="104" viewBox="0 0 109 104" fill="none" xmlns="http://www.w3.org/2000/svg">
<g clip-path="url(#clip0_53_3258)">
<path d="M98.8238 20.0649C98.6308 19.9445 98.3412 19.6541 98.0044 19.5767C92.6976 18.353 87.3908 17.1315 82.0668 15.9809C81.0994 15.7723 80.5288 15.31 80.0505 14.4798C77.3885 9.86469 74.6729 5.27965 72.0044 0.668804C71.6119 -0.00862943 71.2859 -0.169923 70.5051 0.176321C65.4192 2.43228 60.3076 4.63448 55.1852 6.80657C54.7626 6.98506 54.1277 6.97216 53.703 6.78936C48.7222 4.64953 43.75 2.48605 38.8057 0.264495C37.9155 -0.135514 37.4887 -0.0709963 36.9739 0.819345C34.2411 5.55923 31.4461 10.2647 28.634 14.9573C28.3873 15.368 27.9046 15.7766 27.4542 15.8949C25.8047 16.3336 24.1208 16.6455 22.452 17.0154C18.5952 17.8713 14.7384 18.7251 10.8881 19.6154C10.6457 19.6713 10.2832 20.052 10.3003 20.2585C10.4784 22.609 10.7165 24.9575 10.9417 27.3059C11.2635 30.6501 11.6152 33.9899 11.8791 37.3384C11.9198 37.8395 11.6925 38.4932 11.36 38.8739C7.85714 42.8912 4.30925 46.8719 0.765653 50.8548C-0.263965 52.014 -0.259674 51.986 0.784958 53.171C4.31354 57.1668 7.84213 61.1625 11.3257 65.197C11.6753 65.6013 11.8984 66.2723 11.8834 66.81C11.8426 68.1992 11.6281 69.5821 11.4973 70.9692C11.1133 75.0617 10.7808 79.1586 10.3239 83.2426C10.2253 84.12 10.4462 84.3372 11.2206 84.5071C16.5059 85.6663 21.7763 86.8921 27.0638 88.0341C27.9947 88.2341 28.5374 88.6835 28.9986 89.4814C31.6606 94.0965 34.3784 98.6794 37.0468 103.292C37.4608 104.006 37.7954 104.183 38.6255 103.813C43.6771 101.563 48.7544 99.3784 53.8446 97.2213C54.295 97.0299 54.9686 97.0471 55.4212 97.2428C60.3719 99.3633 65.3098 101.514 70.2241 103.716C71.14 104.127 71.5883 104.084 72.1289 103.14C74.5077 98.9805 77.0946 94.9353 79.3726 90.7223C80.3937 88.8362 81.685 87.9695 83.7464 87.576C88.5341 86.662 93.2768 85.505 98.028 84.4082C98.324 84.3394 98.7681 83.9286 98.7595 83.6942C98.693 82.1974 98.5257 80.7027 98.3798 79.2081C97.9787 75.0467 97.5432 70.8875 97.2043 66.7196C97.1593 66.1669 97.4553 65.4508 97.8307 65.0185C101.355 60.9711 104.911 56.9495 108.507 52.9667C109.184 52.214 109.139 51.7494 108.487 51.0204C105.002 47.13 101.595 43.1686 98.0881 39.2976C97.2794 38.4051 97.0735 37.5147 97.1893 36.39C97.7427 31.0587 98.2575 25.7252 98.8195 20.0649H98.8238Z" fill="white"/>
<path d="M98.8241 20.0649C98.2621 25.7231 97.7472 31.0587 97.1938 36.39C97.078 37.5147 97.2839 38.4051 98.0926 39.2976C101.598 43.1686 105.006 47.13 108.492 51.0204C109.144 51.7494 109.191 52.2161 108.511 52.9667C104.916 56.9517 101.359 60.9711 97.8352 65.0185C97.4598 65.4508 97.1638 66.1669 97.2088 66.7196C97.5478 70.8875 97.9832 75.0445 98.3843 79.2081C98.528 80.7027 98.6975 82.1952 98.764 83.6942C98.7747 83.9286 98.3285 84.3394 98.0325 84.4082C93.2813 85.505 88.5386 86.6641 83.7509 87.576C81.6895 87.9695 80.3982 88.8362 79.3772 90.7223C77.0991 94.9353 74.5144 98.9805 72.1334 103.14C71.5928 104.084 71.1424 104.127 70.2286 103.716C65.3143 101.514 60.3764 99.3633 55.4257 97.2428C54.9731 97.0493 54.2974 97.0321 53.8491 97.2213C48.7589 99.3762 43.6795 101.563 38.6301 103.813C37.7999 104.183 37.4653 104.006 37.0513 103.292C34.385 98.6794 31.6673 94.0965 29.0031 89.4814C28.542 88.6835 27.9993 88.2341 27.0683 88.0341C21.7808 86.8921 16.5104 85.6663 11.2251 84.5071C10.4507 84.3372 10.2298 84.12 10.3285 83.2426C10.7853 79.1586 11.1178 75.0617 11.5018 70.9692C11.6326 69.5821 11.8471 68.1992 11.8879 66.81C11.9029 66.2723 11.6798 65.6035 11.3302 65.197C7.8445 61.1625 4.31591 57.1668 0.789475 53.171C-0.255158 51.9881 -0.259448 52.014 0.770169 50.8548C4.31377 46.8719 7.85951 42.8912 11.3645 38.8739C11.697 38.4932 11.9222 37.8395 11.8836 37.3384C11.6176 33.9899 11.2658 30.6501 10.9462 27.3059C10.721 24.9575 10.4829 22.6112 10.3049 20.2585C10.2898 20.052 10.6502 19.6713 10.8926 19.6154C14.7408 18.7251 18.5997 17.8713 22.4565 17.0154C24.1253 16.6455 25.8092 16.3336 27.4587 15.8949C27.9092 15.7745 28.3939 15.3659 28.6385 14.9573C31.4506 10.2626 34.2435 5.55923 36.9784 0.819345C37.491 -0.0709963 37.92 -0.135514 38.8102 0.264495C43.7567 2.48605 48.7267 4.64953 53.7075 6.78936C54.1322 6.97216 54.7672 6.98506 55.1897 6.80657C60.3121 4.63448 65.4237 2.43228 70.5096 0.176321C71.2904 -0.169923 71.6164 -0.00862943 72.009 0.668804C74.6774 5.27965 77.3951 9.86469 80.055 14.4798C80.5333 15.31 81.1061 15.7723 82.0713 15.9809C87.3932 17.1337 92.7021 18.3552 98.0089 19.5767C98.3457 19.6541 98.6331 19.9445 98.8283 20.0649H98.8241ZM49.7821 55.399C47.3003 53.1366 44.9214 50.9709 42.5469 48.801C41.4036 47.7558 40.0951 47.0655 38.5292 46.9966C35.8372 46.8784 33.2095 48.644 32.1542 51.2397C31.0924 53.8506 31.7423 56.4463 33.9153 58.4248C37.7227 61.8916 41.5237 65.3648 45.314 68.8509C48.6431 71.9133 52.6157 71.6165 55.4922 68.1412C59.7801 62.9604 64.1195 57.8205 68.4332 52.6613C70.9579 49.6419 73.5062 46.644 75.9923 43.5944C78.2639 40.8051 77.7598 36.947 74.894 34.6329C71.9961 32.2953 68.3259 32.5877 66.0307 35.3878C62.766 39.3728 59.5356 43.3858 56.2901 47.3859C54.1515 50.0225 52.0086 52.6548 49.78 55.3968L49.7821 55.399Z" fill="#FFBF00"/>
<path d="M49.782 55.399C52.0107 52.657 54.1536 50.0225 56.2922 47.3881C59.5376 43.388 62.7681 39.375 66.0328 35.39C68.3258 32.5899 71.9981 32.2974 74.8961 34.6351C77.764 36.9492 78.2681 40.8073 75.9943 43.5966C73.5082 46.6461 70.9599 49.6462 68.4352 52.6635C64.1194 57.8227 59.7822 62.9626 55.4942 68.1433C52.6177 71.6187 48.6451 71.9155 45.316 68.853C41.5279 65.3669 37.7248 61.8938 33.9173 58.427C31.7444 56.4485 31.0945 53.8527 32.1562 51.2419C33.2116 48.6483 35.8393 46.8805 38.5313 46.9988C40.0972 47.0676 41.4056 47.758 42.5489 48.8032C44.9235 50.9731 47.3023 53.1387 49.7842 55.4011L49.782 55.399Z" fill="white"/>
</g>
<defs>
<clipPath id="clip0_53_3258">
<rect width="109" height="104" fill="white"/>
</clipPath>
</defs>
</svg>
